<svg width="24" height="12" viewBox="0 0 24 12" fill="none" xmlns="http://www.w3.org/2000/svg">
<path opacity="0.5" fill-rule="evenodd" clip-rule="evenodd" d="M3.89085 4.67776C3.62855 4.67776 3.51197 4.35717 3.68684 4.1823L6.48475 1.38438C6.65962 1.20952 6.65962 0.947211 6.48475 0.772341L5.84356 0.131152C5.66869 -0.0437174 5.40639 -0.0437174 5.23152 0.131152L0.131152 5.26066C-0.0437174 5.43553 -0.0437174 5.69784 0.131152 5.87271L5.23152 10.9731C5.40639 11.1479 5.66869 11.1479 5.84356 10.9731L6.45561 10.361C6.63047 10.1862 6.63047 9.92385 6.45561 9.74898L3.65769 6.95107C3.48282 6.74705 3.5994 6.42646 3.8617 6.42646H23.5378C23.771 6.42646 23.975 6.25159 23.975 6.01843V5.14408C23.975 4.91092 23.8001 4.67776 23.567 4.67776H3.89085Z" fill="#040404"/>
</svg>
