<svg width="18" height="20" viewBox="0 0 18 20" fill="none" xmlns="http://www.w3.org/2000/svg">
<path fill-rule="evenodd" clip-rule="evenodd" d="M13 16H5C4.448 16 4 15.552 4 15C4 14.448 4.448 14 5 14H13C13.552 14 14 14.448 14 15C14 15.552 13.552 16 13 16ZM13 10C13.552 10 14 10.448 14 11C14 11.552 13.552 12 13 12H5C4.448 12 4 11.552 4 11C4 10.448 4.448 10 5 10H13ZM16 17C16 17.552 15.552 18 15 18H3C2.448 18 2 17.552 2 17V3C2 2.448 2.448 2 3 2H10V6C10 7.104 10.895 8 12 8H16V17ZM12.293 0.293C12.105 0.105 11.851 0 11.586 0H2C0.895 0 0 0.895 0 2V18C0 19.104 0.895 20 2 20H16C17.105 20 18 19.104 18 18V6.414C18 6.149 17.895 5.895 17.707 5.707L12.293 0.293Z" fill="#14325A"/>
</svg>
