<svg width="16" height="21" viewBox="0 0 16 21" fill="none" xmlns="http://www.w3.org/2000/svg">
<path fill-rule="evenodd" clip-rule="evenodd" d="M15.9051 9.446L11.1904 19.345C10.7181 20.346 9.51436 20.779 8.50183 20.312L1.16831 16.931C0.155774 16.464 -0.282214 15.274 0.190166 14.273L6.18747 1.655C6.65884 0.654 7.86255 0.221 8.87609 0.688L13.4593 2.801C14.4718 3.268 14.9098 4.458 14.4374 5.459L10.1506 14.452C9.67823 15.453 8.47452 15.886 7.46199 15.419L5.62911 14.574C4.61557 14.107 4.17758 12.917 4.64996 11.916L7.65417 5.642C7.89087 5.141 8.49273 4.925 8.99849 5.158C9.50526 5.392 9.72375 5.987 9.48806 6.487L6.91172 11.855C6.67502 12.355 6.89452 12.95 7.40028 13.184C7.90705 13.417 8.50891 13.201 8.74459 12.7L12.1767 5.521C12.4124 5.02 12.1939 4.424 11.6871 4.191L8.93678 2.923C8.43102 2.69 7.82917 2.906 7.59348 3.407L2.45294 14.208C2.21523 14.711 2.43574 15.308 2.94454 15.543L8.43608 18.075C8.94487 18.309 9.54976 18.092 9.78646 17.589L14.0713 8.601C14.308 8.1 14.9098 7.884 15.4156 8.117C15.9223 8.35 16.1408 8.946 15.9051 9.446Z" fill="#8A8A8A"/>
</svg>
