<svg width="454" height="35" viewBox="0 0 454 35" fill="none" xmlns="http://www.w3.org/2000/svg">
<path fill-rule="evenodd" clip-rule="evenodd" d="M0 0V34.015H8.504V8.503H29.762V0H0ZM34.0164 0V34.015H42.5194V8.503H59.5264V34.015H68.0314V0H34.0164ZM112.676 23.3856H121.18C126.465 23.3856 130.746 19.1006 130.746 13.8196C130.746 8.5346 126.465 4.2536 121.18 4.2536H108.422V29.7646H112.676V23.3856ZM112.676 19.1356H121.18C124.113 19.1356 126.496 16.7536 126.496 13.8196C126.496 10.8816 124.113 8.5036 121.18 8.5036H112.676V19.1356ZM104.172 4.2536H85.039V29.7646H89.289V8.5036H104.172V4.2536ZM376.535 17.0066C376.535 9.6516 370.57 3.6866 363.215 3.6866C355.856 3.6866 349.891 9.6516 349.891 17.0066C349.891 24.3666 355.856 30.3316 363.215 30.3316C370.57 30.3316 376.535 24.3666 376.535 17.0066ZM372.094 17.0066C372.094 12.1046 368.117 8.1286 363.215 8.1286C358.309 8.1286 354.332 12.1046 354.332 17.0066C354.332 21.9136 358.309 25.8896 363.215 25.8896C368.117 25.8896 372.094 21.9136 372.094 17.0066ZM270.59 4.2536H266.34V29.7646H270.59V19.1356H285.473V29.7646H289.727V4.2536H285.473V14.8816H270.59V4.2536ZM318.781 4.2536H295.395V29.7646H299.649V8.5036H314.527V29.7646H318.781V4.2536ZM401.481 4.2536H380.223V29.7646H401.481V25.5106H384.473V19.1356H397.231V14.8816H384.473V8.5036H401.481V4.2536ZM410.27 4.2536H406.016V29.7646H410.27V19.1356H415.879L423.852 29.7646H429.168L419.602 17.0066L429.168 4.2536H423.852L415.879 14.8816H410.27V4.2536ZM453.543 4.2536H432.285V8.5036H440.789V29.7646H445.039V8.5036H453.543V4.2536ZM212.805 4.2536L203.41 25.5106H200.691V29.7646H228.332V25.5106H226.203V4.2536H212.805ZM215.574 8.5036L208.059 25.5106H221.953V8.5036H215.574ZM135.395 29.7646L137.215 25.6476L153.781 25.6436L155.602 29.7646H160.25L148.977 4.2536L142.02 4.2566L130.746 29.7646H135.395ZM146.207 8.5036H144.789L139.094 21.3976H151.906L146.207 8.5036ZM173.207 14.8816L168.508 4.2536H163.859L169.496 17.0066L163.859 29.7646H168.508L173.207 19.1356H178.024V29.7646H182.277V19.1356H187.094L191.793 29.7646H196.441L190.805 17.0066L196.441 4.2536H191.793L187.094 14.8816H182.277V4.2536H178.024V14.8816H173.207ZM237.231 29.7646L239.051 25.6476L255.617 25.6436L257.438 29.7646H262.086L250.813 4.2536L243.856 4.2566L232.582 29.7646H237.231ZM248.043 8.5036H246.625L240.93 21.3976H253.742L248.043 8.5036ZM328.703 23.3856H337.207C342.488 23.3856 346.774 19.1006 346.774 13.8196C346.774 8.5346 342.488 4.2536 337.207 4.2536H324.449V29.7646H328.703V23.3856ZM328.703 19.1356H337.207C340.141 19.1356 342.52 16.7536 342.52 13.8196C342.52 10.8816 340.141 8.5036 337.207 8.5036H328.703V19.1356Z" fill="white"/>
</svg>
