<svg width="35" height="29" viewBox="0 0 35 29" fill="none" xmlns="http://www.w3.org/2000/svg">
<path d="M18.7733 5.41715C18.8367 4.96382 19.0287 4.49865 18.9273 4.10977C18.7633 3.48027 19.1508 3.04302 19.2622 2.51643C19.2675 2.49131 19.2921 2.46579 19.3145 2.44994C19.345 2.4282 19.3821 2.41561 19.3158 2.51159C19.5054 2.63992 19.6912 2.77454 19.8864 2.89366C19.975 2.94768 20.1376 3.02921 20.1709 2.99756C20.2753 2.89843 20.3455 2.75636 20.4048 2.6204C20.4265 2.57051 20.3797 2.49149 20.3661 2.4254C20.3271 2.23653 20.3876 2.12085 20.5966 2.11654C20.6257 2.1159 20.6581 2.12528 20.6834 2.11549C20.9586 2.00861 21.2273 1.82912 21.5128 2.11782C21.5408 2.14614 21.7185 2.04532 21.8141 1.98466C22.0593 1.829 22.1976 1.84899 22.367 2.08297C22.4068 2.13781 22.4392 2.19946 22.486 2.24731C22.5324 2.29475 22.5927 2.32866 22.6702 2.3856C22.5366 2.6757 22.4093 2.96079 22.0961 3.1112C21.6316 3.33423 21.3756 3.74543 21.1522 4.18017C21.0609 4.35786 21.2612 4.58018 21.5585 4.61317C21.9074 4.65186 22.2589 4.66579 22.6332 4.69207C22.8543 4.97553 23.0945 5.34658 23.4038 5.64653C23.517 5.75626 23.7939 5.7055 23.9966 5.7097C24.0515 5.71086 24.1078 5.64565 24.1635 5.61086C24.1772 5.63749 24.1909 5.66413 24.2046 5.69076C23.9254 5.81425 23.635 5.91844 23.3718 6.06979C23.2491 6.14036 23.145 6.28955 23.0941 6.42603C23.0383 6.57569 23.1397 6.68309 23.3032 6.61794C23.5752 6.50954 23.8647 6.41327 24.0966 6.24328C24.5409 5.91751 24.952 5.546 25.3731 5.18911C26.0558 4.61054 26.3292 3.8857 26.2668 2.98358C26.2368 2.54813 25.9719 2.3937 25.6946 2.19282C25.4049 1.98279 25.1053 1.80872 24.7285 1.92049C24.5662 1.96863 24.459 1.92265 24.4119 1.76402C24.3086 1.4157 24.2122 1.0654 24.0988 0.665974C24.6409 0.665974 25.1503 0.657466 25.6586 0.676348C25.7249 0.678795 25.7948 0.816678 25.8478 0.901354C25.9532 1.06966 26.0563 1.24047 26.1445 1.41809C26.2076 1.54514 26.2424 1.68599 26.2945 1.8188C26.3319 1.91408 26.355 2.02912 26.4233 2.09503C26.5591 2.22598 26.6408 2.34032 26.4947 2.51387C26.4702 2.54295 26.4708 2.6102 26.4845 2.65169C26.6635 3.19407 27.1907 3.36051 27.6595 2.99657C27.886 2.82075 28.1093 2.75327 28.3541 2.87588C29.1105 3.25468 29.9669 3.27776 30.7526 3.58353C31.3787 3.82719 32.0543 3.70568 32.5189 3.08667C32.6118 2.96301 32.7287 2.87699 32.9205 2.9665C32.9836 2.99599 33.1146 2.86731 33.2198 2.82372C33.3096 2.78649 33.4057 2.76131 33.5014 2.74202C33.6415 2.71376 33.8042 2.73171 33.9207 2.66556C34.1701 2.52412 34.396 2.34137 34.6486 2.16345C34.9054 2.52669 35.1424 2.84441 34.9019 3.29541C34.8202 3.44851 34.8196 3.64711 34.7935 3.82666C34.7583 4.06863 34.7058 4.31362 34.7171 4.55466C34.7231 4.6824 34.8482 4.80455 34.8827 4.8648C34.6611 4.66002 34.6519 4.65198 34.4005 4.93771C34.1601 5.21108 33.8232 5.18812 33.5184 5.24879C33.0006 5.35182 32.9256 5.42764 32.9385 5.96279C32.8053 5.96279 32.6711 5.97346 32.5392 5.96064C32.2361 5.93127 31.9707 5.99595 31.7263 6.19112C31.6015 6.29072 31.4401 6.35231 31.2864 6.40639C31.0127 6.50284 31.0099 6.49498 31.0712 6.7856C30.4849 7.27279 29.6917 7.47361 29.1735 8.12544C28.7895 7.9826 28.3994 8.09525 28.0446 8.33925C27.8905 8.44526 27.7092 8.57895 27.8949 8.8099C27.9006 8.81706 27.9077 8.83041 27.9049 8.83612C27.6378 9.36691 28.1903 9.36283 28.3949 9.5869C28.3938 9.60485 28.3998 9.62886 28.3904 9.64197C28.1131 10.0325 28.1143 10.041 28.5895 10.0935C28.8198 10.119 29.0552 10.1566 29.2827 10.1334C29.6246 10.0986 29.7429 9.94973 29.8041 9.57239H30.5749C30.4622 10.1235 31.0669 11.0302 31.7581 11.0642C31.8397 11.0682 31.9537 11.066 32.0007 11.0169C32.2661 10.74 32.3953 11.0499 32.5399 11.1593C32.5811 11.1906 32.5022 11.4326 32.4311 11.5492C32.2787 11.7989 32.1098 12.042 31.9209 12.2652C31.7101 12.5144 31.4747 12.7437 31.2406 12.972C31.041 13.1665 31.094 13.6175 31.3492 13.7141C31.4016 13.734 31.5129 13.6778 31.5579 13.6239C31.7254 13.4234 31.8695 13.2033 32.0382 13.0039C32.0861 12.9474 32.1864 12.932 32.2653 12.9059C32.3446 12.8796 32.4264 12.858 32.5087 12.8442C32.7288 12.8073 32.9498 12.7757 33.1909 12.7388C33.1187 13.169 33.0666 13.5301 32.9907 13.8861C32.9769 13.9508 32.8672 14.0378 32.7995 14.04C32.6079 14.0461 32.5244 14.1479 32.467 14.3078C32.407 14.4744 32.4346 14.5594 32.6347 14.5717C33.088 14.5997 33.5403 14.6447 33.993 14.6828C34.022 14.6852 34.0558 14.6789 34.0792 14.6916C34.237 14.7772 34.5448 14.657 34.5285 14.9796C34.5126 15.2932 34.2643 15.4755 33.9627 15.5064C33.4934 15.5545 33.0895 15.4125 32.6983 15.1765C32.2573 14.9106 31.7975 15.0349 31.3493 15.1576C31.2779 15.1771 31.2111 15.3076 31.1898 15.398C31.1236 15.68 31.0776 15.9668 31.0299 16.2527C31.0192 16.3169 31.0071 16.4058 31.0404 16.4482C31.3017 16.7801 31.1197 17.0714 30.9973 17.3893C30.9025 17.6359 30.888 17.9128 30.8337 18.1754C30.8007 18.3349 30.7982 18.5174 30.7151 18.6465C30.5257 18.9408 30.4882 19.2543 30.482 19.5893C30.4715 20.1584 30.2359 20.291 29.7518 20.0162C29.1886 19.6965 29.1832 19.6988 29.0374 20.3331C28.9224 20.8333 28.9225 20.833 28.3958 20.7476C28.3385 20.7383 28.2783 20.7427 28.2225 20.7285C27.3706 20.5113 27.4629 20.5799 26.8807 21.3561C26.7831 21.4862 26.7029 21.6377 26.65 21.7915C26.4417 22.397 25.971 22.8129 25.5524 23.2507C25.3964 23.4139 25.056 23.4332 24.7945 23.4545C24.533 23.4757 24.4465 23.5402 24.4803 23.8186C24.531 24.2344 24.4555 24.2623 23.987 24.2319C23.1554 24.178 22.3225 24.14 21.4895 24.1144C21.1766 24.1048 20.8863 24.0639 20.6652 23.8275C20.3563 23.4972 19.9954 23.6756 19.6564 23.7219C19.2135 23.7824 19.2451 23.8135 19.1921 24.2585C19.0987 25.0434 18.9466 25.8211 18.8323 26.6037C18.7808 26.9564 18.777 27.3162 18.7221 27.6681C18.6793 27.9422 18.5992 28.2116 18.5201 28.4785C18.4531 28.7045 18.2001 28.7939 18.038 28.6291C17.8403 28.4279 17.6649 28.1967 17.5195 27.9548C17.3939 27.7455 17.2228 27.6765 17.0333 27.8313C16.9208 27.9231 16.8209 28.0305 16.7072 28.1206C16.5239 28.2659 16.3313 28.2209 16.2957 27.9948C16.2244 27.5416 16.1983 27.0813 16.1425 26.6252C16.1319 26.5382 16.0902 26.4379 16.0295 26.3769C15.8202 26.1665 15.6899 25.9302 15.6011 25.6393C15.5257 25.3923 15.322 25.1845 15.1277 24.8868C15.1977 24.7055 14.9899 24.6251 14.7744 24.5382C14.1214 24.2751 13.4757 23.9932 12.8166 23.7468C12.6457 23.6829 12.4358 23.7102 12.2446 23.7168C12.0616 23.7231 11.8801 23.7637 11.697 23.7764C11.548 23.7868 11.3887 23.8556 11.2742 23.6612C11.2412 23.605 11.0778 23.6159 10.9737 23.6128C10.1817 23.5891 9.38726 23.6006 8.59814 23.5406C7.7128 23.4735 6.83323 23.334 5.94947 23.2426C5.14339 23.1592 4.33503 23.0982 3.4557 23.0209C3.56473 22.8384 3.67878 22.6713 3.76643 22.4913C3.81462 22.3923 3.87692 22.2274 3.83216 22.1682C3.62068 21.8883 3.39252 21.6154 3.13663 21.3759C2.68493 20.9533 2.15764 21.0867 1.6328 21.2149C1.22924 21.3134 0.820312 21.3913 0.411385 21.4651C0.33207 21.4794 0.241567 21.4319 0.15625 21.4129C0.189468 21.321 0.198559 21.1729 0.259924 21.1466C0.602416 20.9996 0.953532 20.8691 1.30978 20.7593C1.53723 20.6892 1.79825 20.7053 1.92349 20.4404C1.93631 20.4134 1.98887 20.406 2.0218 20.3875C2.12285 20.3307 2.31581 20.2365 2.30975 20.2212C2.24552 20.0583 2.18562 19.8452 2.05362 19.7696C1.87634 19.6681 1.8433 19.5524 1.81958 19.381C1.6937 18.471 1.95391 17.5941 2.03369 16.7019C2.05939 16.4144 2.04016 16.1231 2.05362 15.8341C2.06277 15.6379 2.13078 15.4374 2.10374 15.2486C2.0746 15.0452 1.97838 14.8467 1.8845 14.6595C1.84732 14.5853 1.73759 14.5475 1.61858 14.4631C1.73968 14.4218 1.82284 14.4073 1.89033 14.3668C1.96795 14.3202 2.08515 14.2562 2.0922 14.1899C2.12291 13.9008 2.29488 13.5928 1.98258 13.3332C1.84004 13.2147 1.87774 13.05 2.01807 12.9309C2.12868 12.8369 2.24512 12.7485 2.36633 12.6688C3.13308 12.1648 3.90553 11.6694 4.6654 11.1552C4.76552 11.0875 4.8527 10.9331 4.86226 10.8123C4.88627 10.5095 4.9942 10.3155 5.29869 10.2095C5.70966 10.0665 6.1208 9.90929 6.50415 9.70602C6.8154 9.54098 7.09053 9.30501 7.37049 9.08619C7.42731 9.04172 7.43412 8.93333 7.46408 8.85419C7.68716 8.89842 7.73081 9.03141 7.59153 9.22669C7.51489 9.33404 7.41081 9.4401 7.38366 9.5612C7.26081 10.1099 7.27281 10.0953 7.81776 10.2176C8.04871 10.2694 8.25909 10.41 8.48124 10.5046C8.85607 10.6643 8.85683 10.6622 9.01348 10.2972C9.1967 9.87024 9.36774 9.43719 9.57323 9.02115C9.62253 8.92126 9.7811 8.83385 9.89975 8.81811C10.1576 8.78391 10.4234 8.81322 10.6834 8.78886C10.8006 8.77785 10.9116 8.70045 11.0782 8.63122C11.17 8.80209 11.2826 9.02202 11.405 9.23637C11.5394 9.47151 11.695 9.69535 11.8179 9.93603C11.8943 10.0856 11.9465 10.2541 11.975 10.42C12.015 10.6527 11.9637 10.9132 12.2575 11.0344C12.296 11.0503 12.3028 11.1684 12.3062 11.2399C12.3237 11.6136 12.502 11.7432 12.8428 11.6209C13.2165 11.4867 13.5863 11.341 13.963 11.216C14.4087 11.068 14.63 11.2131 14.7037 11.6837C14.733 11.8704 14.7567 12.0579 14.7829 12.2451C14.9446 12.1843 15.104 12.1159 15.2686 12.0644C15.607 11.9586 15.8885 11.5198 15.8327 11.1715C15.8136 11.0527 16.0873 10.7158 16.1837 10.6646C16.6053 10.4407 17.0191 10.2014 17.4296 9.9576C17.4722 9.9323 17.4975 9.8379 17.4924 9.77892C17.4422 9.20087 17.4364 8.61158 17.3083 8.05044C17.2301 7.70835 17.4179 7.44751 17.4124 7.14062C17.4113 7.0785 17.5782 7.00087 17.6783 6.95245C17.8118 6.88782 17.964 6.85996 18.0936 6.78939C18.4234 6.60978 18.7487 6.42091 19.0675 6.22242C19.1443 6.17457 19.2401 6.07311 19.2374 5.99962C19.2323 5.86122 19.1914 5.70288 19.1096 5.59513C19.0417 5.50556 18.8936 5.47671 18.7733 5.41715Z" fill="white"/>
</svg>
