<svg width="71" height="57" viewBox="0 0 71 57" fill="none" xmlns="http://www.w3.org/2000/svg">
<g clip-path="url(#clip0_1404_2727)">
<path fill-rule="evenodd" clip-rule="evenodd" d="M57.5869 21.3216C57.5869 25.302 56.4871 29.0276 54.5725 32.2158H54.6085L54.4207 32.4647C53.7283 33.5827 52.9349 34.6325 52.053 35.6016L35.9014 57L20.078 35.5544C16.6637 31.78 14.5869 26.7914 14.5869 21.3216C14.5869 9.54603 24.2128 0 36.0869 0C47.961 0 57.5869 9.54603 57.5869 21.3216ZM36.0869 30.2057C41.0345 30.2057 45.0452 26.2282 45.0452 21.3216C45.0452 16.4151 41.0345 12.4376 36.0869 12.4376C31.1394 12.4376 27.1286 16.4151 27.1286 21.3216C27.1286 26.2282 31.1394 30.2057 36.0869 30.2057Z" fill="#14325A"/>
<g clip-path="url(#clip1_1404_2727)" filter="url(#filter0_d_1404_2727)">
<path fill-rule="evenodd" clip-rule="evenodd" d="M37.7304 3.35406H70.0675C70.5822 3.35406 71 3.77053 71 4.28369V20.8762C71 21.3893 70.5822 21.8058 70.0675 21.8058H54.2413C53.0557 29.8879 45.1637 36.1337 35.6045 36.1337C26.0452 36.1337 18.1532 29.8879 16.9676 21.8058H0.932505C0.417762 21.8058 0 21.3893 0 20.8762V4.28369C0 3.77053 0.417762 3.35406 0.932505 3.35406H33.4786C34.1763 3.28531 34.8857 3.25 35.6045 3.25C36.3232 3.25 37.0326 3.28531 37.7304 3.35406Z" fill="url(#paint0_linear_1404_2727)"/>
<path d="M10.2832 11.005H8.85319V14.25H7.44519V6.55H8.85319V9.773H10.3272L12.5382 6.55H14.0562L11.4272 10.279L14.1552 14.25H12.5382L10.2832 11.005ZM18.3782 8.31C18.9502 8.31 19.4599 8.43467 19.9072 8.684C20.3619 8.93333 20.7176 9.28533 20.9742 9.74C21.2309 10.1947 21.3592 10.719 21.3592 11.313C21.3592 11.907 21.2309 12.435 20.9742 12.897C20.7176 13.3517 20.3619 13.7037 19.9072 13.953C19.4599 14.2023 18.9502 14.327 18.3782 14.327C17.5862 14.327 16.9592 14.063 16.4972 13.535V16.384H15.1222V8.376H16.4312V9.146C16.6586 8.86733 16.9372 8.65833 17.2672 8.519C17.6046 8.37967 17.9749 8.31 18.3782 8.31ZM18.2242 13.15C18.7302 13.15 19.1446 12.9813 19.4672 12.644C19.7972 12.3067 19.9622 11.863 19.9622 11.313C19.9622 10.763 19.7972 10.3193 19.4672 9.982C19.1446 9.64467 18.7302 9.476 18.2242 9.476C17.8942 9.476 17.5972 9.553 17.3332 9.707C17.0692 9.85367 16.8602 10.0663 16.7062 10.345C16.5522 10.6237 16.4752 10.9463 16.4752 11.313C16.4752 11.6797 16.5522 12.0023 16.7062 12.281C16.8602 12.5597 17.0692 12.776 17.3332 12.93C17.5972 13.0767 17.8942 13.15 18.2242 13.15ZM24.8415 8.31C25.7068 8.31 26.3668 8.519 26.8215 8.937C27.2835 9.34767 27.5145 9.971 27.5145 10.807V14.25H26.2165V13.535C26.0478 13.7917 25.8058 13.9897 25.4905 14.129C25.1825 14.261 24.8085 14.327 24.3685 14.327C23.9285 14.327 23.5435 14.2537 23.2135 14.107C22.8835 13.953 22.6268 13.744 22.4435 13.48C22.2675 13.2087 22.1795 12.9043 22.1795 12.567C22.1795 12.039 22.3738 11.6173 22.7625 11.302C23.1585 10.9793 23.7782 10.818 24.6215 10.818H26.1395V10.73C26.1395 10.3193 26.0148 10.004 25.7655 9.784C25.5235 9.564 25.1605 9.454 24.6765 9.454C24.3465 9.454 24.0202 9.50533 23.6975 9.608C23.3822 9.71067 23.1145 9.85367 22.8945 10.037L22.3555 9.036C22.6635 8.80133 23.0338 8.62167 23.4665 8.497C23.8992 8.37233 24.3575 8.31 24.8415 8.31ZM24.6545 13.326C24.9992 13.326 25.3035 13.249 25.5675 13.095C25.8388 12.9337 26.0295 12.7063 26.1395 12.413V11.731H24.7205C23.9285 11.731 23.5325 11.9913 23.5325 12.512C23.5325 12.7613 23.6315 12.9593 23.8295 13.106C24.0275 13.2527 24.3025 13.326 24.6545 13.326ZM31.889 14.327C31.2803 14.327 30.734 14.1987 30.25 13.942C29.766 13.6853 29.3883 13.3297 29.117 12.875C28.8457 12.413 28.71 11.8923 28.71 11.313C28.71 10.7337 28.8457 10.2167 29.117 9.762C29.3883 9.30733 29.7623 8.95167 30.239 8.695C30.723 8.43833 31.273 8.31 31.889 8.31C32.4683 8.31 32.9743 8.42733 33.407 8.662C33.847 8.89667 34.177 9.234 34.397 9.674L33.341 10.29C33.1723 10.0187 32.9597 9.817 32.703 9.685C32.4537 9.54567 32.1787 9.476 31.878 9.476C31.3647 9.476 30.9393 9.64467 30.602 9.982C30.2647 10.312 30.096 10.7557 30.096 11.313C30.096 11.8703 30.261 12.3177 30.591 12.655C30.9283 12.985 31.3573 13.15 31.878 13.15C32.1787 13.15 32.4537 13.084 32.703 12.952C32.9597 12.8127 33.1723 12.6073 33.341 12.336L34.397 12.952C34.1697 13.392 33.836 13.733 33.396 13.975C32.9633 14.2097 32.461 14.327 31.889 14.327ZM36.2404 14.327C35.9911 14.327 35.7784 14.2427 35.6024 14.074C35.4264 13.898 35.3384 13.678 35.3384 13.414C35.3384 13.1427 35.4228 12.9227 35.5914 12.754C35.7674 12.5853 35.9838 12.501 36.2404 12.501C36.4971 12.501 36.7098 12.5853 36.8784 12.754C37.0544 12.9227 37.1424 13.1427 37.1424 13.414C37.1424 13.678 37.0544 13.898 36.8784 14.074C36.7024 14.2427 36.4898 14.327 36.2404 14.327ZM44.804 8.31C45.376 8.31 45.8857 8.43467 46.333 8.684C46.7877 8.93333 47.1434 9.28533 47.4 9.74C47.6567 10.1947 47.785 10.719 47.785 11.313C47.785 11.907 47.6567 12.435 47.4 12.897C47.1434 13.3517 46.7877 13.7037 46.333 13.953C45.8857 14.2023 45.376 14.327 44.804 14.327C44.012 14.327 43.385 14.063 42.923 13.535V16.384H41.548V8.376H42.857V9.146C43.0844 8.86733 43.363 8.65833 43.693 8.519C44.0304 8.37967 44.4007 8.31 44.804 8.31ZM44.65 13.15C45.156 13.15 45.5704 12.9813 45.893 12.644C46.223 12.3067 46.388 11.863 46.388 11.313C46.388 10.763 46.223 10.3193 45.893 9.982C45.5704 9.64467 45.156 9.476 44.65 9.476C44.32 9.476 44.023 9.553 43.759 9.707C43.495 9.85367 43.286 10.0663 43.132 10.345C42.978 10.6237 42.901 10.9463 42.901 11.313C42.901 11.6797 42.978 12.0023 43.132 12.281C43.286 12.5597 43.495 12.776 43.759 12.93C44.023 13.0767 44.32 13.15 44.65 13.15ZM51.2673 8.31C52.1326 8.31 52.7926 8.519 53.2473 8.937C53.7093 9.34767 53.9403 9.971 53.9403 10.807V14.25H52.6423V13.535C52.4736 13.7917 52.2316 13.9897 51.9163 14.129C51.6083 14.261 51.2343 14.327 50.7943 14.327C50.3543 14.327 49.9693 14.2537 49.6393 14.107C49.3093 13.953 49.0526 13.744 48.8693 13.48C48.6933 13.2087 48.6053 12.9043 48.6053 12.567C48.6053 12.039 48.7996 11.6173 49.1883 11.302C49.5843 10.9793 50.204 10.818 51.0473 10.818H52.5653V10.73C52.5653 10.3193 52.4406 10.004 52.1913 9.784C51.9493 9.564 51.5863 9.454 51.1023 9.454C50.7723 9.454 50.446 9.50533 50.1233 9.608C49.808 9.71067 49.5403 9.85367 49.3203 10.037L48.7813 9.036C49.0893 8.80133 49.4596 8.62167 49.8923 8.497C50.325 8.37233 50.7833 8.31 51.2673 8.31ZM51.0803 13.326C51.425 13.326 51.7293 13.249 51.9933 13.095C52.2646 12.9337 52.4553 12.7063 52.5653 12.413V11.731H51.1463C50.3543 11.731 49.9583 11.9913 49.9583 12.512C49.9583 12.7613 50.0573 12.9593 50.2553 13.106C50.4533 13.2527 50.7283 13.326 51.0803 13.326ZM58.8208 8.662C59.3781 8.662 59.8694 8.783 60.2948 9.025C60.7201 9.25967 61.0501 9.58967 61.2848 10.015C61.5268 10.4403 61.6478 10.928 61.6478 11.478C61.6478 12.0427 61.5158 12.545 61.2518 12.985C60.9878 13.4177 60.6174 13.755 60.1408 13.997C59.6641 14.239 59.1214 14.36 58.5128 14.36C57.4934 14.36 56.7051 14.0227 56.1478 13.348C55.5904 12.6733 55.3118 11.7017 55.3118 10.433C55.3118 9.25233 55.5648 8.31733 56.0708 7.628C56.5768 6.93867 57.3504 6.484 58.3918 6.264L61.1198 5.681L61.3178 6.913L58.8428 7.419C58.1314 7.56567 57.5998 7.815 57.2478 8.167C56.8958 8.519 56.6904 9.014 56.6318 9.652C56.8958 9.33667 57.2148 9.09467 57.5888 8.926C57.9628 8.75 58.3734 8.662 58.8208 8.662ZM58.5458 13.249C59.0518 13.249 59.4588 13.0877 59.7668 12.765C60.0821 12.435 60.2398 12.017 60.2398 11.511C60.2398 11.005 60.0821 10.598 59.7668 10.29C59.4588 9.982 59.0518 9.828 58.5458 9.828C58.0324 9.828 57.6181 9.982 57.3028 10.29C56.9874 10.598 56.8298 11.005 56.8298 11.511C56.8298 12.0243 56.9874 12.4423 57.3028 12.765C57.6254 13.0877 58.0398 13.249 58.5458 13.249ZM63.2893 14.327C63.0399 14.327 62.8273 14.2427 62.6513 14.074C62.4753 13.898 62.3873 13.678 62.3873 13.414C62.3873 13.1427 62.4716 12.9227 62.6403 12.754C62.8163 12.5853 63.0326 12.501 63.2893 12.501C63.5459 12.501 63.7586 12.5853 63.9273 12.754C64.1033 12.9227 64.1913 13.1427 64.1913 13.414C64.1913 13.678 64.1033 13.898 63.9273 14.074C63.7513 14.2427 63.5386 14.327 63.2893 14.327Z" fill="white"/>
<path d="M29.0704 20.7156V30.5156H27.2504V22.2416H25.1784V20.7156H29.0704ZM38.1124 28.9756V30.5156H30.8884V29.2976L34.7804 25.6016C35.2191 25.1816 35.5131 24.8176 35.6624 24.5096C35.8211 24.1923 35.9004 23.8796 35.9004 23.5716C35.9004 23.1143 35.7464 22.7643 35.4384 22.5216C35.1304 22.279 34.6778 22.1576 34.0804 22.1576C33.0818 22.1576 32.3164 22.4983 31.7844 23.1796L30.5104 22.1996C30.8931 21.6863 31.4064 21.2896 32.0504 21.0096C32.7038 20.7203 33.4318 20.5756 34.2344 20.5756C35.2984 20.5756 36.1478 20.8276 36.7824 21.3316C37.4171 21.8356 37.7344 22.5216 37.7344 23.3896C37.7344 23.9216 37.6224 24.421 37.3984 24.8876C37.1744 25.3543 36.7451 25.8863 36.1104 26.4836L33.4924 28.9756H38.1124ZM43.5739 24.4676C44.2179 24.4676 44.7965 24.5936 45.3099 24.8456C45.8232 25.0883 46.2245 25.4383 46.5139 25.8956C46.8032 26.353 46.9479 26.8803 46.9479 27.4776C46.9479 28.1123 46.7892 28.6723 46.4719 29.1576C46.1545 29.6336 45.7252 30.0023 45.1839 30.2636C44.6425 30.525 44.0359 30.6556 43.3639 30.6556C42.0199 30.6556 40.9745 30.2356 40.2279 29.3956C39.4905 28.5556 39.1219 27.3516 39.1219 25.7836C39.1219 24.6823 39.3225 23.7443 39.7239 22.9696C40.1252 22.1856 40.6852 21.593 41.4039 21.1916C42.1319 20.781 42.9719 20.5756 43.9239 20.5756C44.4279 20.5756 44.8992 20.6316 45.3379 20.7436C45.7859 20.8463 46.1732 21.0003 46.4999 21.2056L45.8279 22.5776C45.3425 22.2603 44.7219 22.1016 43.9659 22.1016C43.0232 22.1016 42.2859 22.391 41.7539 22.9696C41.2219 23.5483 40.9559 24.3836 40.9559 25.4756V25.4896C41.2452 25.1536 41.6139 24.9016 42.0619 24.7336C42.5099 24.5563 43.0139 24.4676 43.5739 24.4676ZM43.2659 29.2276C43.8352 29.2276 44.2972 29.0783 44.6519 28.7796C45.0065 28.4716 45.1839 28.0656 45.1839 27.5616C45.1839 27.0483 45.0065 26.6423 44.6519 26.3436C44.2972 26.045 43.8212 25.8956 43.2239 25.8956C42.6359 25.8956 42.1552 26.0543 41.7819 26.3716C41.4179 26.689 41.2359 27.0903 41.2359 27.5756C41.2359 28.0516 41.4132 28.4483 41.7679 28.7656C42.1319 29.0736 42.6312 29.2276 43.2659 29.2276Z" fill="white"/>
</g>
</g>
<defs>
<filter id="filter0_d_1404_2727" x="-6" y="3.25" width="83" height="44.8828" filterUnits="userSpaceOnUse" color-interpolation-filters="sRGB">
<feFlood flood-opacity="0" result="BackgroundImageFix"/>
<feColorMatrix in="SourceAlpha" type="matrix" values="0 0 0 0 0 0 0 0 0 0 0 0 0 0 0 0 0 0 127 0" result="hardAlpha"/>
<feOffset dy="6"/>
<feGaussianBlur stdDeviation="3"/>
<feColorMatrix type="matrix" values="0 0 0 0 0 0 0 0 0 0 0 0 0 0 0 0 0 0 0.307665 0"/>
<feBlend mode="normal" in2="BackgroundImageFix" result="effect1_dropShadow_1404_2727"/>
<feBlend mode="normal" in="SourceGraphic" in2="effect1_dropShadow_1404_2727" result="shape"/>
</filter>
<linearGradient id="paint0_linear_1404_2727" x1="0" y1="3.25" x2="0" y2="36.1337" gradientUnits="userSpaceOnUse">
<stop stop-color="#4293E6"/>
<stop offset="1" stop-color="#1F5AC8"/>
</linearGradient>
<clipPath id="clip0_1404_2727">
<rect width="71" height="57" fill="white"/>
</clipPath>
<clipPath id="clip1_1404_2727">
<rect width="71" height="32.8837" fill="white" transform="translate(0 3.25)"/>
</clipPath>
</defs>
</svg>
