<svg width="61" height="37" viewBox="0 0 61 37" fill="none" xmlns="http://www.w3.org/2000/svg">
<path fill-rule="evenodd" clip-rule="evenodd" d="M6.79132 0H12.826C14.2543 0 15.3246 1.34315 15.2166 3L14.5643 13C14.4562 14.6569 13.1306 16 11.6034 16H5.15134C3.62417 16 2.53885 14.6569 2.7272 13L3.864 3C4.05236 1.34315 5.36296 0 6.79132 0ZM34.3783 0H40.4129C41.8413 0 43.0718 1.34315 43.1613 3L43.7018 13C43.7913 14.6569 42.6259 16 41.0987 16H34.6466C33.1195 16 31.874 14.6569 31.8647 13L31.8088 3C31.7995 1.34315 32.9499 0 34.3783 0ZM20.5848 0H26.6195C28.0478 0 29.1982 1.34315 29.189 3L29.133 13C29.1238 14.6569 27.8783 16 26.3511 16H19.899C18.3718 16 17.2064 14.6569 17.2959 13L17.8364 3C17.9259 1.34315 19.1564 0 20.5848 0ZM48.1718 0H54.2064C55.6348 0 56.9454 1.34315 57.1337 3L58.2705 13C58.4589 14.6569 57.3736 16 55.8464 16H49.3943C47.8671 16 46.5415 14.6569 46.4334 13L45.7812 3C45.6731 1.34315 46.7434 0 48.1718 0ZM4.63885 21H11.2214C12.7794 21 13.9549 22.3431 13.8468 24L13.1945 34C13.0865 35.6569 11.6557 37 9.99887 37H2.99887C1.34202 37 0.151559 35.6569 0.339911 34L1.47672 24C1.66507 22.3431 3.0808 21 4.63885 21ZM34.7305 21H41.3131C42.8711 21 44.2067 22.3431 44.2963 24L44.8367 34C44.9263 35.6569 43.6557 37 41.9989 37H34.9989C33.342 37 31.9914 35.6569 31.9821 34L31.9262 24C31.9169 22.3431 33.1725 21 34.7305 21ZM19.6847 21H26.2672C27.8253 21 29.0808 22.3431 29.0716 24L29.0156 34C29.0064 35.6569 27.6557 37 25.9989 37H18.9989C17.342 37 16.0715 35.6569 16.161 34L16.7015 24C16.791 22.3431 18.1266 21 19.6847 21ZM49.7763 21H56.3589C57.9169 21 59.3327 22.3431 59.521 24L60.6578 34C60.8462 35.6569 59.6557 37 57.9989 37H50.9989C49.342 37 47.9113 35.6569 47.8032 34L47.1509 24C47.0429 22.3431 48.2183 21 49.7763 21Z" fill="white"/>
</svg>
