<svg width="77" height="48" viewBox="0 0 77 48" fill="none" xmlns="http://www.w3.org/2000/svg">
<path fill-rule="evenodd" clip-rule="evenodd" d="M73.8062 14.7467L76.1907 22.2965C76.66 23.7822 76.1022 25.4374 74.8839 26.1746C73.5547 26.9788 71.909 26.4145 71.1824 24.9052L69.9797 22.4067L67.4959 17.0439L66.4462 24.1536L63.471 26.497L63.2484 30.5859L67.5991 31.647L70.6249 39.1369L67.6131 45.8448C67.0329 47.137 65.6036 47.5656 64.5465 46.7644C63.7705 46.1763 63.417 45.0785 63.6732 44.0528L64.7962 39.5567L60.1816 39.1985L56.6037 35.4103L54.5152 41.9977C54.2367 42.8759 53.437 43.3847 52.6403 43.1903L45.4563 41.4381L42.6109 38.7493L37.6797 40.7022C37.1489 40.9125 36.5694 40.8926 36.0505 40.6464L31.0462 38.2717C30.504 38.0144 30.0679 37.529 29.8274 36.9148L27.4783 30.9153L20.8436 29.9109L17.1711 30.2428L14.921 27.7755C14.0299 26.7984 12.6638 26.6718 11.6475 27.4722L10.4164 28.4419L9.03831 32.7274C8.21359 35.2921 4.97447 34.9969 4.51017 32.3156C4.44128 31.9178 4.37319 31.5218 4.30607 31.1313C4.08964 29.8725 3.8833 28.6723 3.69291 27.6619C3.55766 27.6335 3.4225 27.5884 3.28967 27.5252L0.964271 26.4185C0.42714 26.1629 0.0849609 25.621 0.0849609 25.0262C0.0849609 24.0072 1.05574 23.2684 2.03786 23.54L3.01565 23.8104C3.11018 22.7593 3.62094 21.7828 4.44733 21.1986L9.01263 17.9717L10.3183 10.9244L10.0879 8.8782C9.87784 7.0112 11.3218 5.4554 12.9326 5.8133L16.7262 6.65618L20.6455 4.01675C22.6025 2.69877 25.0435 4.44939 24.8684 7.0453L24.6708 9.97494L32.5147 13.1156L36.483 10.4655L39.0839 13.0299L45.5253 8.0005C47.2202 6.67705 49.498 8.18328 49.3497 10.5295L49.1625 13.4932L55.0975 13.9432L57.5825 10.6363L62.2637 9.91284L67.7414 3.44662L70.7822 2.19338L73.8158 0.148433C74.5658 -0.357188 75.4475 0.51727 75.1198 1.44195L73.3284 6.49722L75.4524 9.4705L73.8062 14.7467Z" fill="white"/>
<path fill-rule="evenodd" clip-rule="evenodd" d="M40.5156 18V29.5155H43.3942V20.8786H49.1518V29.5155H52.0311V18H40.5156Z" fill="#14325A"/>
<path fill-rule="evenodd" clip-rule="evenodd" d="M29 18V29.5155H31.879V20.8786H39.0756V18H29Z" fill="#14325A"/>
</svg>
