<svg width="40" height="25" viewBox="0 0 40 25" fill="none" xmlns="http://www.w3.org/2000/svg">
<path fill-rule="evenodd" clip-rule="evenodd" d="M38.6443 7.81579L39.912 11.8172C40.1615 12.6046 39.865 13.4819 39.2173 13.8726C38.5106 14.2989 37.6356 13.9997 37.2493 13.1998L36.6099 11.8756L35.2894 9.03333L34.7313 12.8015L33.1496 14.0435L33.0312 16.2106L35.3443 16.773L36.9529 20.7427L35.3517 24.2979C35.0432 24.9827 34.2834 25.2099 33.7213 24.7853C33.3088 24.4736 33.1209 23.8917 33.2571 23.3481L33.8541 20.9651L31.4008 20.7753L29.4986 18.7675L28.3882 22.2589C28.2402 22.7243 27.815 22.994 27.3914 22.891L23.5721 21.9623L22.0593 20.5372L19.4376 21.5723C19.1554 21.6837 18.8473 21.6732 18.5715 21.5427L15.911 20.2841C15.6227 20.1477 15.3908 19.8904 15.263 19.5649L14.0141 16.3852L10.4867 15.8528L8.53421 16.0288L7.33795 14.7211C6.8642 14.2032 6.13791 14.1361 5.59762 14.5604L4.94307 15.0743L4.21043 17.3456C3.77197 18.7049 2.04989 18.5484 1.80304 17.1274C1.76642 16.9165 1.73022 16.7066 1.69453 16.4997C1.54248 15.618 1.39979 14.7906 1.27365 14.1779L0.460372 13.7906C0.17914 13.6566 0 13.3729 0 13.0614C0 12.5277 0.508555 12.1407 1.02298 12.283L1.064 12.2944C1.17293 11.8656 1.41734 11.4836 1.76963 11.2353L4.19678 9.52504L4.89092 5.78998L4.76846 4.70547C4.65677 3.71595 5.42442 2.89138 6.28083 3.08106L8.29769 3.52779L10.3814 2.12889C11.4219 1.43035 12.7196 2.35819 12.6265 3.73403L12.5215 5.28675L16.6916 6.95132L18.8014 5.54672L20.1842 6.90588L23.6087 4.24029C24.5098 3.53886 25.7208 4.33716 25.642 5.58066L25.5424 7.15142L28.6978 7.38995L30.0189 5.63729L32.5077 5.25383L35.42 1.82672L37.0366 1.1625L38.6494 0.07867C39.0482 -0.189311 39.5169 0.274154 39.3427 0.764237L38.3903 3.44355L39.5195 5.01939L38.6443 7.81579Z" fill="white"/>
</svg>
