<svg width="18" height="40" viewBox="0 0 18 40" fill="none" xmlns="http://www.w3.org/2000/svg">
<path d="M0 12.7902C0 12.6184 0 12.4466 0 12.2749C0.196889 12.1119 0.397224 11.9529 0.589938 11.7854C1.1733 11.2785 1.18113 11.1465 0.699031 10.505C0.544526 10.2992 0.441174 10.0915 0.71469 9.88375C1.06097 9.62056 1.10555 9.38579 0.6603 9.1537C0.554861 9.09873 0.533669 8.88432 0.473746 8.74327C0.640674 8.72043 0.873893 8.61854 0.961376 8.69077C1.17225 8.86479 1.304 9.12983 1.48878 9.3397C1.62763 9.49749 1.7908 9.63885 1.96357 9.75851C1.99959 9.78351 2.20295 9.65848 2.19773 9.6405C2.13843 9.43776 2.06744 9.23513 1.9691 9.0482C1.92547 8.96512 1.78036 8.93402 1.73797 8.85084C1.63274 8.64438 1.51258 8.42717 1.48586 8.20387C1.44817 7.88953 1.43262 7.54998 1.51655 7.25146C1.57334 7.04985 1.7886 6.81901 1.98612 6.74895C2.21026 6.66949 2.49672 6.73459 2.75071 6.77241C3.36748 6.86406 3.94019 6.74916 4.33815 6.56605C4.41905 6.16833 4.51384 5.90793 4.51812 5.64608C4.5366 4.48917 5.41509 4.17494 6.26925 3.8016C6.63098 3.6436 6.93842 3.3675 7.28929 3.17954C7.55446 3.03745 7.94792 2.77706 8.11318 2.86985C8.66679 3.18078 9.02622 2.82542 9.40173 2.59602C9.46447 2.428 9.55227 2.214 9.67817 2.18899C10.0354 2.118 10.114 1.94833 10.0749 1.61085C10.0057 1.0142 10.1676 0.466852 10.6727 0.105498C10.8302 -0.00703068 11.1323 -0.0285238 11.3246 0.0361623C11.8298 0.206454 11.4803 0.554065 11.3937 0.864372C11.6822 0.879459 11.9864 0.810639 12.1633 0.929162C12.3301 1.04086 12.363 1.34983 12.4774 1.62645C13.0392 0.719913 13.8932 0.664114 14.5587 1.32524C14.8708 1.63534 15.3548 1.78103 15.2463 2.35453C15.2429 2.37282 15.2924 2.40155 15.3181 2.42449C15.5635 2.64355 15.5733 2.89279 15.4184 3.16631C15.1164 3.69982 14.7821 4.21885 14.5252 4.77313C14.2835 5.29475 14.1257 5.83363 13.6587 6.24603C13.3894 6.4837 13.2762 6.89558 13.0283 7.34611C13.7745 6.7752 14.3897 6.30441 15.0893 5.76926C15.2731 6.21327 15.3546 6.68643 15.6243 6.99963C16.0857 7.53531 16.5864 7.98625 16.8605 8.6978C17.0166 9.10338 17.0779 9.36471 16.8064 9.62583C16.3064 10.1064 16.0507 10.642 16.1576 11.3419C16.171 11.4303 16.041 11.5685 15.9446 11.6403C15.6226 11.8805 15.2695 12.082 14.9649 12.3408C14.8736 12.4183 14.8407 12.6564 14.8867 12.7832C15.0356 13.1946 15.2626 13.5786 15.4061 13.9914C15.6613 14.7251 16.0057 15.4792 15.2864 16.1678C15.2696 16.1838 15.2843 16.2324 15.2843 16.2475C15.4124 16.3972 15.5667 16.5198 15.6433 16.6792C15.8098 17.0261 15.8998 17.4127 16.0895 17.7445C16.3136 18.1365 16.467 18.4876 16.2363 18.9413C16.1343 19.1418 16.1466 19.4134 16.1581 19.6503C16.1629 19.7475 16.298 19.9135 16.3817 19.9185C16.7173 19.9384 17.0566 19.8918 17.3935 19.9017C17.5737 19.907 17.7519 19.9775 17.931 20.0185C17.8173 20.1695 17.7335 20.365 17.5845 20.4633C17.0166 20.8383 16.8663 21.6916 17.1871 22.3005C17.3547 22.6184 17.4356 23.0564 17.3663 23.4027C17.2861 23.8034 17.024 24.1797 16.794 24.5367C16.3208 25.2707 16.4312 25.7802 17.2026 26.1971C17.522 26.3697 17.4211 26.5987 17.3416 26.8583C17.2959 27.0075 17.2825 27.2203 17.3575 27.342C17.5785 27.7007 17.5916 28.3935 17.2352 28.5911C17.0386 28.7002 16.6749 28.5358 16.3954 28.4618C16.2905 28.4341 16.2198 28.297 16.1166 28.2392C15.9945 28.1707 15.7876 28.0557 15.7354 28.0995C15.6231 28.1937 15.5808 28.3746 15.5198 28.524C15.3974 28.8244 15.2983 29.1354 15.1587 29.4274C14.9989 29.7616 14.7983 30.0764 14.63 30.4068C14.5513 30.5611 14.5069 30.7324 14.4469 30.896C14.2957 30.7771 14.1107 30.6827 14.0006 30.5337C13.796 30.2573 13.6477 30.1346 13.3689 30.4746C13.2501 30.6195 12.9973 30.7002 12.7948 30.7251C12.1676 30.8022 11.7569 31.5565 12.1224 32.0771C12.4502 32.5439 12.3407 32.8783 11.9802 33.2547C11.8194 33.4224 11.7153 33.6895 11.6846 33.9242C11.6274 34.3618 11.6712 34.8124 11.6129 35.2497C11.5913 35.4119 11.4321 35.6072 11.2814 35.691C10.9409 35.8803 10.9031 36.0645 11.1914 36.3158C11.4072 36.504 11.6288 36.6855 11.9307 36.9397C11.6693 37.0679 11.5455 37.1673 11.4088 37.1895C10.5617 37.3268 9.90857 37.8288 9.61439 38.5509C9.33408 39.2388 8.81148 39.5834 8.3036 40H7.57701C7.36843 39.9288 7.1636 39.8423 6.95043 39.7894C6.432 39.6608 6.29744 39.2868 6.63975 38.8714C6.72598 38.7668 6.85574 38.6985 6.94834 38.598C7.38878 38.1198 7.69727 37.2723 7.33251 36.7203C7.0234 36.2528 6.79457 35.7329 6.48128 35.144C6.30923 35.1632 5.99761 35.2527 5.70301 35.2141C5.46144 35.1824 5.15953 35.0513 5.03561 34.8651C4.93654 34.7163 4.9903 34.3672 5.10816 34.1968C5.35203 33.8441 5.32593 33.5599 5.04855 33.2776C4.65979 32.8819 4.62429 31.9101 4.99719 31.5233C5.45747 31.0459 5.45382 31.0287 4.83632 30.7651C4.22676 30.5049 4.10315 30.001 4.51906 29.4859C4.62972 29.3489 4.72942 29.203 4.7789 29.1359C4.45663 28.8165 4.18541 28.5725 3.94374 28.3022C3.57032 27.8846 3.14459 27.6539 2.56729 27.8129C2.46895 27.8399 2.36142 27.8406 2.25817 27.8415C1.88413 27.8448 1.70049 27.7193 1.83965 27.3036C1.89425 27.1407 1.88903 26.9323 1.83944 26.7656C1.71897 26.3607 1.84613 26.1169 2.22351 25.936C2.45172 25.8267 2.64245 25.6403 2.85928 25.4818C2.76063 25.359 2.73641 25.3093 2.69653 25.2824C1.89112 24.7363 1.88726 24.6074 2.43043 23.7885C2.62742 23.4915 2.88402 23.0365 2.78307 22.7841C2.59213 22.3069 2.72701 22.0268 2.98007 21.6682C3.35255 21.1405 3.18374 20.7157 2.60988 20.4268C2.46101 20.3518 2.29628 20.0775 2.32436 19.9295C2.41059 19.4747 2.25024 19.1772 1.91847 18.8934C1.80082 18.7928 1.75833 18.5824 1.72367 18.4135C1.62491 17.9323 1.80959 17.4589 1.43617 16.9445C1.16985 16.5776 0.934442 15.8729 1.49953 15.3261C1.84613 14.9907 1.80385 14.1579 1.50402 13.7769C1.42677 13.6787 1.2921 13.5621 1.18342 13.5617C0.610399 13.5594 0.291994 13.201 0 12.7902Z" fill="white"/>
</svg>
