<svg width="14" height="19" viewBox="0 0 14 19" fill="none" xmlns="http://www.w3.org/2000/svg">
<path fill-rule="evenodd" clip-rule="evenodd" d="M5 17C5 18.1 5.9 19 7 19C8.1 19 9 18.1 9 17C9 15.9 8.1 15 7 15C5.9 15 5 15.9 5 17ZM0 2C0 3.1 0.9 4 2 4C3.1 4 4 3.1 4 2C4 0.9 3.1 0 2 0C0.9 0 0 0.9 0 2ZM0 7C0 8.1 0.9 9 2 9C3.1 9 4 8.1 4 7C4 5.9 3.1 5 2 5C0.9 5 0 5.9 0 7ZM0 12C0 13.1 0.9 14 2 14C3.1 14 4 13.1 4 12C4 10.9 3.1 10 2 10C0.9 10 0 10.9 0 12ZM14 2C14 0.9 13.1 0 12 0C10.9 0 10 0.9 10 2C10 3.1 10.9 4 12 4C13.1 4 14 3.1 14 2ZM5 12C5 13.1 5.9 14 7 14C8.1 14 9 13.1 9 12C9 10.9 8.1 10 7 10C5.9 10 5 10.9 5 12ZM10 12C10 13.1 10.9 14 12 14C13.1 14 14 13.1 14 12C14 10.9 13.1 10 12 10C10.9 10 10 10.9 10 12ZM10 7C10 8.1 10.9 9 12 9C13.1 9 14 8.1 14 7C14 5.9 13.1 5 12 5C10.9 5 10 5.9 10 7ZM5 7C5 8.1 5.9 9 7 9C8.1 9 9 8.1 9 7C9 5.9 8.1 5 7 5C5.9 5 5 5.9 5 7ZM5 2C5 3.1 5.9 4 7 4C8.1 4 9 3.1 9 2C9 0.9 8.1 0 7 0C5.9 0 5 0.9 5 2Z" fill="#1F60B8"/>
</svg>
