<svg width="24" height="12" viewBox="0 0 24 12" fill="none" xmlns="http://www.w3.org/2000/svg">
<path fill-rule="evenodd" clip-rule="evenodd" d="M20.0838 4.67776C20.3461 4.67776 20.4626 4.35717 20.2878 4.1823L17.4899 1.38438C17.315 1.20952 17.315 0.947211 17.4899 0.772341L18.131 0.131152C18.3059 -0.0437174 18.5682 -0.0437174 18.7431 0.131152L23.8435 5.26066C24.0183 5.43553 24.0183 5.69784 23.8435 5.87271L18.7431 10.9731C18.5682 11.1479 18.3059 11.1479 18.131 10.9731L17.519 10.361C17.3441 10.1862 17.3441 9.92385 17.519 9.74898L20.3169 6.95107C20.4918 6.74705 20.3752 6.42646 20.1129 6.42646H0.436783C0.203623 6.42646 -0.000391006 6.25159 -0.000391006 6.01843V5.14408C-0.000391006 4.91092 0.174479 4.67776 0.407639 4.67776H20.0838Z" fill="white"/>
</svg>
